# FreeCAD v0.20 build1 Arch module
# http://www.freecadweb.org
mtllib w2Sample3.mtl
o Body
usemtl color_cccccc
v 30.0 30.0 0.0
v -30.0 30.0 0.0
v -30.0 30.0 20.0
v 30.0 30.0 20.0
v 30.0 -30.0 0.0
v 30.0 -30.0 20.0
v -30.0 -30.0 0.0
v -30.0 -30.0 20.0
vn 0.0 1.0 0.0
vn 0.0 1.0 -0.0
vn 1.0 0.0 0.0
vn 1.0 0.0 0.0
vn 0.0 -1.0 0.0
vn 0.0 -1.0 0.0
vn -1.0 0.0 0.0
vn -1.0 0.0 0.0
vn 0.0 0.0 -1.0
vn 0.0 0.0 -1.0
vn 0.0 0.0 1.0
vn 0.0 0.0 1.0
f 1//1 2//1 3//1 
f 1//2 3//2 4//2 
f 5//3 1//3 4//3 
f 5//4 4//4 6//4 
f 7//5 5//5 6//5 
f 7//6 6//6 8//6 
f 2//7 7//7 8//7 
f 2//8 8//8 3//8 
f 2//9 1//9 7//9 
f 7//10 1//10 5//10 
f 4//11 3//11 8//11 
f 4//12 8//12 6//12 
